<?xml version="1.0" encoding="UTF-8"?>
<svg id="Livello_1" xmlns="http://www.w3.org/2000/svg" version="1.1" viewBox="0 0 24 24">
  <!-- Generator: Adobe Illustrator 29.1.0, SVG Export Plug-In . SVG Version: 2.1.0 Build 142)  -->
  <defs>
    <style>
      .st0 {
        fill: #908f96;
      }
    </style>
  </defs>
  <g id="Page-1">
    <path class="st0" d="M3.9,18.6c-1.2-1.3-1.9-2.7-1.9-5,0-4.1,3-7.7,7.3-9.6v1.4c-.7.3-3,1.6-4,4.2-.5,1.2-.6,2.3-.6,3,.3-.2,1.4-1,2.9-.9s2.9,1.1,3.5,2.4c.2.5.4,1.1.4,1.7,0,1.1-.5,2.1-1.2,2.9-.4.3-.7.6-1.1.8-.8.4-1.6.4-1.9.4-1.8,0-3-.9-3.4-1.3ZM14.5,18.7c-1.2-1.3-1.9-2.7-1.9-5,0-4.1,3-7.7,7.3-9.6v1.4c-.7.3-3,1.6-4,4.2-.5,1.2-.6,2.3-.6,3,.3-.2,1.4-1,2.9-.9s2.9,1.1,3.5,2.4c.2.5.4,1.1.4,1.7,0,1.1-.5,2.1-1.2,2.9-.4.3-.7.6-1.1.8-.9.4-1.7.4-2,.4-1.7,0-2.9-1-3.3-1.3Z"/>
  </g>
</svg>