<?xml version="1.0" encoding="UTF-8"?>
<svg id="Livello_1" xmlns="http://www.w3.org/2000/svg" version="1.1" viewBox="0 0 1360 400">
  <!-- Generator: Adobe Illustrator 29.2.0, SVG Export Plug-In . SVG Version: 2.1.0 Build 108)  -->
  <path d="M838.6,215l17.3-1.1c113.2-9,229.8-66.5,315.9-112.8,35.7-19.2,78.1-48.3,128.1-46.6,1.4,0,6.5.8,7.1.7,1.2-.2,1.5-3.8,1.4-4.7-45.2-4.3-82.6,15-115.1,32.6-93.3,50.4-212.6,115.7-336.3,126.2-223.9,18.9-288-162.9-491.9-180.4l-15.2-.7h-7.7l-14.1.7c-66.5,4.4-122.9,39.9-192.3,29.8-20.5-3-39.8-10.2-49.3-22.9-1.1-.4-5.2,1.5-6.5,1.8v.4c10.8,13,29.8,21.2,51.4,24.7,72.9,11.9,127-23.6,195.2-29,58.7-4.7,113.3,12.1,159.4,34,105.5,50.1,179.2,140.9,322.6,147.1l1.3.4h28.7Z"/>
</svg>