<?xml version="1.0" encoding="UTF-8"?>
<svg id="Livello_1" xmlns="http://www.w3.org/2000/svg" version="1.1" viewBox="0 0 800 800">
  <!-- Generator: Adobe Illustrator 29.2.0, SVG Export Plug-In . SVG Version: 2.1.0 Build 108)  -->
  <path d="M35.3,736.2c19.3-26,52-38.7,80.9-48,21.9-7,43.9-13,65.8-20.2,86.4-28.5,200.5-71.3,263.1-144.7,69.9-81.8,47.1-170,63.5-252.3,8.8-44.2,28.3-93,72.1-129.1,41-33.9,97.8-49.5,127.8-93.9,9.1-13.5,14.3-28.8,10.1-41,.2-.4,4.1-2.4,4.6-2.5.8-.1,1.6,4,1.7,4.8,5.2,29.1-28.4,63.8-58,83.3-39,25.7-74.9,38.1-106.4,75.1-64.2,75.2-47.9,167.2-60.2,242.9-9.9,60.9-35.8,110.9-97.8,157.8l-.7.9-22.6,15.9-18.7,11.5c-64.9,37.1-135.2,62.5-203.4,83.8s-84.5,21.2-112.6,51.1c-.9,1-4.7,5.9-5.1,6.1-.8.4-2.7-1.1-3.8-.9l-.4-.5Z"/>
</svg>